<svg xmlns="http://www.w3.org/2000/svg">
  <defs>
    <!-- menu -->
    <symbol id="menu" viewBox="0 0 24 24" fill="none" stroke-linecap="round" stroke-linejoin="round" stroke-width="1.5">
      <path d="M3 12h18"/>
      <path d="M3 6h18"/>
      <path d="M3 18h18"/>
    </symbol>

    <!-- x -->
    <symbol id="x" viewBox="0 0 24 24" fill="none" stroke-linecap="round" stroke-linejoin="round" stroke-width="1.5">
      <path d="M18 6L6 18"/>
      <path d="M6 6l12 12"/>
    </symbol>

    <!-- search -->
    <symbol id="search" viewBox="0 0 24 24" fill="none" stroke-linecap="round" stroke-linejoin="round" stroke-width="1.5">
      <path d="M11 17.25a6.25 6.25 0 110-12.5 6.25 6.25 0 010 12.5z"/>
      <path d="M16 16l4.5 4.5"/>
    </symbol>

    <!-- rss -->
    <symbol id="rss" viewBox="0 0 24 24" fill="none" stroke-linecap="round" stroke-linejoin="round" stroke-width="1.5">
      <path d="M4 11a9 9 0 019 9"/>
      <path d="M4 4a16 16 0 0116 16"/>
      <circle cx="5" cy="19" r="1"/>
    </symbol>

    <!-- sun -->
    <symbol id="sun" viewBox="0 0 24 24" fill="none" stroke-linecap="round" stroke-linejoin="round" stroke-width="1.5">
      <circle cx="12" cy="12" r="5"/>
      <path d="M12 1v2"/>
      <path d="M12 21v2"/>
      <path d="M4.22 4.22l1.42 1.42"/>
      <path d="M18.36 18.36l1.42 1.42"/>
      <path d="M1 12h2"/>
      <path d="M21 12h2"/>
      <path d="M4.22 19.78l1.42-1.42"/>
      <path d="M18.36 5.64l1.42-1.42"/>
    </symbol>

    <!-- moon -->
    <symbol id="moon" viewBox="0 0 24 24" fill="none" stroke-linecap="round" stroke-linejoin="round" stroke-width="1.5">
      <path d="M21 12.79A9 9 0 1111.21 3 7 7 0 0021 12.79z"/>
    </symbol>

    <!-- square -->
    <symbol id="square" viewBox="0 0 448 512">
      <path d="M384 80c8.8 0 16 7.2 16 16V416c0 8.8-7.2 16-16 16H64c-8.8 0-16-7.2-16-16V96c0-8.8 7.2-16 16-16H384zM64 32C28.7 32 0 60.7 0 96V416c0 35.3 28.7 64 64 64H384c35.3 0 64-28.7 64-64V96c0-35.3-28.7-64-64-64H64z"/>
    </symbol>

    <!-- square-check -->
    <symbol id="square-check" viewBox="0 0 448 512">
      <path d="M64 32C28.7 32 0 60.7 0 96V416c0 35.3 28.7 64 64 64H384c35.3 0 64-28.7 64-64V96c0-35.3-28.7-64-64-64H64zM337 209L209 337c-9.4 9.4-24.6 9.4-33.9 0l-64-64c-9.4-9.4-9.4-24.6 0-33.9s24.6-9.4 33.9 0l47 47L303 175c9.4-9.4 24.6-9.4 33.9 0s9.4 24.6 0 33.9z"/>
    </symbol>

    <!-- calendar -->
    <symbol id="calendar" fill="none" stroke-linecap="round" stroke-linejoin="round" stroke-width="1.5" viewBox="0 0 24 24">
      <rect x="3" y="4" width="18" height="18" rx="2" ry="2"/>
      <path d="M16 2v4"/>
      <path d="M8 2v4"/>
      <path d="M3 10h18"/>
    </symbol>

    <!-- book-open -->
    <symbol id="book-open" fill="none" stroke-linecap="round" stroke-linejoin="round" stroke-width="1.5" viewBox="0 0 24 24">
      <path d="M2 3h6a4 4 0 014 4v14a3 3 0 00-3-3H2z"/>
      <path d="M22 3h-6a4 4 0 00-4 4v14a3 3 0 013-3h7z"/>
    </symbol>

    <!-- book -->
    <svg id="book" xmlns="http://www.w3.org/2000/svg" viewBox="0 0 36 36"><path fill="#269" d="M32 7H4a4 4 0 0 0-4 4v15a4 4 0 0 0 4 4h11.416c.52.596 1.477 1 2.584 1s2.065-.404 2.584-1H32a4 4 0 0 0 4-4V11a4 4 0 0 0-4-4"/><path fill="#292F33" d="M20 27a2 2 0 0 1-4 0V9a2 2 0 0 1 4 0z"/><path fill="#99AAB5" d="M18 26a2 2 0 0 1-2 2H4a2 2 0 0 1-2-2V8a2 2 0 0 1 2-2h12a2 2 0 0 1 2 2z"/><path fill="#E1E8ED" d="M18 26c-.999-1.998-3.657-2-4-2-2 0-5 2-8 2-1 0-2-.896-2-2V8c0-1.104 1-2 2-2 3.255 0 6-2 8-2 3 0 4 1.896 4 3z"/><path fill="#99AAB5" d="M34 26a2 2 0 0 1-2 2H20a2 2 0 0 1-2-2V8a2 2 0 0 1 2-2h12a2 2 0 0 1 2 2z"/><path fill="#CCD6DD" d="M18 26c.999-1.998 3.657-2 4-2 2 0 5 2 8 2 1 0 2-.896 2-2V8c0-1.104-1-2-2-2-3.256 0-6-2-8-2-3 0-4 1.896-4 3z"/></svg>

    <!-- scroll -->
    <svg id="scroll" xmlns="http://www.w3.org/2000/svg" viewBox="0 0 36 36"><path fill="#FFD983" d="M32 0H10a4 4 0 0 0-4 4v24H4a4 4 0 0 0 0 8h24a4 4 0 0 0 4-4V8a4 4 0 0 0 0-8"/><path fill="#E39F3D" d="M8 10h24V8H10L8 7z"/><path fill="#FFE8B6" d="M10 0a4 4 0 0 0-4 4v24.555A3.96 3.96 0 0 0 4 28a4 4 0 1 0 4 4V7.445C8.59 7.789 9.268 8 10 8a4 4 0 0 0 0-8"/><path fill="#C1694F" d="M12 4a2 2 0 1 1-4.001-.001A2 2 0 0 1 12 4M6 32a2 2 0 1 1-4.001-.001A2 2 0 0 1 6 32m24-17a1 1 0 0 1-1 1H11a1 1 0 0 1 0-2h18a1 1 0 0 1 1 1m0 4a1 1 0 0 1-1 1H11a1 1 0 1 1 0-2h18a1 1 0 0 1 1 1m0 4a1 1 0 0 1-1 1H11a1 1 0 1 1 0-2h18a1 1 0 0 1 1 1m0 4a1 1 0 0 1-1 1H11a1 1 0 1 1 0-2h18a1 1 0 0 1 1 1"/></svg>

    <!-- pdf-->
    <svg id="pdf" xmlns="http://www.w3.org/2000/svg" viewBox="0 0 36 36">
    <g transform="translate(26.5, -87) scale(0.71)">
      <path fill="#ff2116" d="M-29.632812 123.94727c-3.551967 0-6.44336 2.89347-6.44336 6.44531v49.49804c0 3.55185 2.891393 6.44532 6.44336 6.44532H8.2167969c3.5519661 0 6.4433591-2.89335 6.4433591-6.44532v-40.70117s.101353-1.19181-.416015-2.35156c-.484969-1.08711-1.275391-1.84375-1.275391-1.84375a1.0584391 1.0584391 0 0 0-.0059-.008l-9.3906254-9.21094a1.0584391 1.0584391 0 0 0-.015625-.0156s-.8017392-.76344-1.9902344-1.27344c-1.39939552-.6005-2.8417968-.53711-2.8417968-.53711l.021484-.002z" color="#000" font-family="sans-serif" overflow="visible" paint-order="markers fill stroke" style="line-height:normal;font-variant-ligatures:normal;font-variant-position:normal;font-variant-caps:normal;font-variant-numeric:normal;font-variant-alternates:normal;font-feature-settings:normal;text-indent:0;text-align:start;text-decoration-line:none;text-decoration-style:solid;text-decoration-color:#000000;text-transform:none;text-orientation:mixed;white-space:normal;shape-padding:0;isolation:auto;mix-blend-mode:normal;solid-color:#000000;solid-opacity:1"/>
      <path fill="#f5f5f5" d="M-29.632812 126.06445h28.3789058a1.0584391 1.0584391 0 0 0 .021484 0s1.13480448.011 1.96484378.36719c.79889772.34282 1.36536982.86176 1.36914062.86524.0000125.00001.00391.004.00391.004l9.3671868 9.18945s.564354.59582.837891 1.20899c.220779.49491.234375 1.40039.234375 1.40039a1.0584391 1.0584391 0 0 0-.002.0449v40.74609c0 2.41592-1.910258 4.32813-4.3261717 4.32813H-29.632812c-2.415914 0-4.326172-1.91209-4.326172-4.32813v-49.49804c0-2.41603 1.910258-4.32813 4.326172-4.32813z" color="#000" font-family="sans-serif" overflow="visible" paint-order="markers fill stroke" style="line-height:normal;font-variant-ligatures:normal;font-variant-position:normal;font-variant-caps:normal;font-variant-numeric:normal;font-variant-alternates:normal;font-feature-settings:normal;text-indent:0;text-align:start;text-decoration-line:none;text-decoration-style:solid;text-decoration-color:#000000;text-transform:none;text-orientation:mixed;white-space:normal;shape-padding:0;isolation:auto;mix-blend-mode:normal;solid-color:#000000;solid-opacity:1"/>
      <path fill="#ff2116" d="M-23.40766 161.09299c-1.45669-1.45669.11934-3.45839 4.39648-5.58397l2.69124-1.33743 1.04845-2.29399c.57665-1.26169 1.43729-3.32036 1.91254-4.5748l.8641-2.28082-.59546-1.68793c-.73217-2.07547-.99326-5.19438-.52872-6.31588.62923-1.51909 2.69029-1.36323 3.50626.26515.63727 1.27176.57212 3.57488-.18329 6.47946l-.6193 2.38125.5455.92604c.30003.50932 1.1764 1.71867 1.9475 2.68743l1.44924 1.80272 1.8033728-.23533c5.72900399-.74758 7.6912472.523 7.6912472 2.34476 0 2.29921-4.4984914 2.48899-8.2760865-.16423-.8499666-.59698-1.4336605-1.19001-1.4336605-1.19001s-2.3665326.48178-3.531704.79583c-1.202707.32417-1.80274.52719-3.564509 1.12186 0 0-.61814.89767-1.02094 1.55026-1.49858 2.4279-3.24833 4.43998-4.49793 5.1723-1.3991.81993-2.86584.87582-3.60433.13733zm2.28605-.81668c.81883-.50607 2.47616-2.46625 3.62341-4.28553l.46449-.73658-2.11497 1.06339c-3.26655 1.64239-4.76093 3.19033-3.98386 4.12664.43653.52598.95874.48237 2.01093-.16792zm21.21809-5.95578c.80089-.56097.68463-1.69142-.22082-2.1472-.70466-.35471-1.2726074-.42759-3.1031574-.40057-1.1249.0767-2.9337647.3034-3.2403347.37237 0 0 .993716.68678 1.434896.93922.58731.33544 2.0145161.95811 3.0565161 1.27706 1.02785.31461 1.6224.28144 2.0729-.0409zm-8.53152-3.54594c-.4847-.50952-1.30889-1.57296-1.83152-2.3632-.68353-.89643-1.02629-1.52887-1.02629-1.52887s-.4996 1.60694-.90948 2.57394l-1.27876 3.16076-.37075.71695s1.971043-.64627 2.97389-.90822c1.0621668-.27744 3.21787-.70134 3.21787-.70134zm-2.74938-11.02573c.12363-1.0375.1761-2.07346-.15724-2.59587-.9246-1.01077-2.04057-.16787-1.85154 2.23517.0636.8084.26443 2.19033.53292 3.04209l.48817 1.54863.34358-1.16638c.18897-.64151.47882-2.02015.64411-3.06364z"/>
      <path fill="#2c2c2c" d="M-20.930423 167.83862h2.364986q1.133514 0 1.840213.2169.706698.20991 1.189489.9446.482795.72769.482795 1.75625 0 .94459-.391832 1.6233-.391833.67871-1.056548.97958-.65772.30087-2.02913.30087h-.818651v3.72941h-1.581322zm1.581322 1.22447v3.33058h.783664q1.049552 0 1.44838-.39184.405826-.39183.405826-1.27345 0-.65772-.265887-1.06355-.265884-.41282-.587747-.50378-.314866-.098-1.000572-.098zm5.50664-1.22447h2.148082q1.560333 0 2.4909318.55276.9375993.55276 1.4133973 1.6443.482791 1.09153.482791 2.42096 0 1.3994-.4338151 2.49793-.4268149 1.09153-1.3154348 1.76324-.8816233.67172-2.5189212.67172h-2.267031zm1.581326 1.26645v7.018h.657715q1.378411 0 2.001144-.9516.6227329-.95858.6227329-2.5539 0-3.5125-2.6238769-3.5125zm6.4722254-1.26645h5.30372941v1.26645H-4.2075842v2.85478h2.9807225v1.26646h-2.9807225v4.16322h-1.5813254z" font-family="Franklin Gothic Medium Cond" letter-spacing="0" style="line-height:125%;-inkscape-font-specification:'Franklin Gothic Medium Cond'" word-spacing="4.26000023"/>
    </g>
  </svg>

    <!-- arrow-right -->
    <symbol id="arrow-right" fill="none" stroke-linecap="round" stroke-linejoin="round" stroke-width="1.5" viewBox="0 0 24 24">
      <path d="M5 12h14"/>
      <path d="M12 5l7 7-7 7"/>
    </symbol>

    <!-- globe -->
    <symbol id="globe" viewBox="0 0 16 16">
      <path fill-rule="evenodd" clip-rule="evenodd" d="M10.268 14.0934C11.9051 13.4838 13.2303 12.2333 13.9384 10.6469C13.1192 10.7941 12.2138 10.9111 11.2469 10.9925C11.0336 12.2005 10.695 13.2621 10.268 14.0934ZM8 16C12.4183 16 16 12.4183 16 8C16 3.58172 12.4183 0 8 0C3.58172 0 0 3.58172 0 8C0 12.4183 3.58172 16 8 16ZM8.48347 14.4823C8.32384 14.494 8.16262 14.5 8 14.5C7.83738 14.5 7.67616 14.494 7.51654 14.4823C7.5132 14.4791 7.50984 14.4759 7.50647 14.4726C7.2415 14.2165 6.94578 13.7854 6.67032 13.1558C6.41594 12.5744 6.19979 11.8714 6.04101 11.0778C6.67605 11.1088 7.33104 11.125 8 11.125C8.66896 11.125 9.32395 11.1088 9.95899 11.0778C9.80021 11.8714 9.58406 12.5744 9.32968 13.1558C9.05422 13.7854 8.7585 14.2165 8.49353 14.4726C8.49016 14.4759 8.4868 14.4791 8.48347 14.4823ZM11.4187 9.72246C12.5137 9.62096 13.5116 9.47245 14.3724 9.28806C14.4561 8.87172 14.5 8.44099 14.5 8C14.5 7.55901 14.4561 7.12828 14.3724 6.71194C13.5116 6.52755 12.5137 6.37904 11.4187 6.27753C11.4719 6.83232 11.5 7.40867 11.5 8C11.5 8.59133 11.4719 9.16768 11.4187 9.72246ZM10.1525 6.18401C10.2157 6.75982 10.25 7.36805 10.25 8C10.25 8.63195 10.2157 9.24018 10.1525 9.81598C9.46123 9.85455 8.7409 9.875 8 9.875C7.25909 9.875 6.53877 9.85455 5.84749 9.81598C5.7843 9.24018 5.75 8.63195 5.75 8C5.75 7.36805 5.7843 6.75982 5.84749 6.18401C6.53877 6.14545 7.25909 6.125 8 6.125C8.74091 6.125 9.46123 6.14545 10.1525 6.18401ZM11.2469 5.00748C12.2138 5.08891 13.1191 5.20593 13.9384 5.35306C13.2303 3.7667 11.9051 2.51622 10.268 1.90662C10.695 2.73788 11.0336 3.79953 11.2469 5.00748ZM8.48347 1.51771C8.4868 1.52089 8.49016 1.52411 8.49353 1.52737C8.7585 1.78353 9.05422 2.21456 9.32968 2.84417C9.58406 3.42562 9.80021 4.12856 9.95899 4.92219C9.32395 4.89118 8.66896 4.875 8 4.875C7.33104 4.875 6.67605 4.89118 6.04101 4.92219C6.19978 4.12856 6.41594 3.42562 6.67032 2.84417C6.94578 2.21456 7.2415 1.78353 7.50647 1.52737C7.50984 1.52411 7.51319 1.52089 7.51653 1.51771C7.67615 1.50597 7.83738 1.5 8 1.5C8.16262 1.5 8.32384 1.50597 8.48347 1.51771ZM5.73202 1.90663C4.0949 2.51622 2.76975 3.7667 2.06159 5.35306C2.88085 5.20593 3.78617 5.08891 4.75309 5.00748C4.96639 3.79953 5.30497 2.73788 5.73202 1.90663ZM4.58133 6.27753C3.48633 6.37904 2.48837 6.52755 1.62761 6.71194C1.54392 7.12828 1.5 7.55901 1.5 8C1.5 8.44099 1.54392 8.87172 1.62761 9.28806C2.48837 9.47245 3.48633 9.62096 4.58133 9.72246C4.52807 9.16768 4.5 8.59133 4.5 8C4.5 7.40867 4.52807 6.83232 4.58133 6.27753ZM4.75309 10.9925C3.78617 10.9111 2.88085 10.7941 2.06159 10.6469C2.76975 12.2333 4.0949 13.4838 5.73202 14.0934C5.30497 13.2621 4.96639 12.2005 4.75309 10.9925Z"/>
    </symbol>

    <!-- link -->
    <symbol id="link" viewBox="0 0 16 16">
      <path d="M8.46968 1.46968C10.1433 -0.203925 12.8567 -0.203923 14.5303 1.46968C16.2039 3.14329 16.2039 5.85674 14.5303 7.53034L12.0303 10.0303L10.9697 8.96968L13.4697 6.46968C14.5575 5.38186 14.5575 3.61816 13.4697 2.53034C12.3819 1.44252 10.6182 1.44252 9.53034 2.53034L7.03034 5.03034L5.96968 3.96968L8.46968 1.46968ZM11.5303 5.53034L5.53034 11.5303L4.46968 10.4697L10.4697 4.46968L11.5303 5.53034ZM1.46968 14.5303C3.14329 16.2039 5.85673 16.204 7.53034 14.5303L10.0303 12.0303L8.96968 10.9697L6.46968 13.4697C5.38186 14.5575 3.61816 14.5575 2.53034 13.4697C1.44252 12.3819 1.44252 10.6182 2.53034 9.53034L5.03034 7.03034L3.96968 5.96968L1.46968 8.46968C-0.203923 10.1433 -0.203925 12.8567 1.46968 14.5303Z"/>
    </symbol>

    <!-- arxiv small -->
    <!-- <symbol id="archive" viewBox="0 0 16 16">
    <path d="M573.549,280.916l2.266,2.738,6.674-7.84c.353-.47.52-.717.353-1.117a1.218,1.218,0,0,0-1.061-.748h0a.953.953,0,0,0-.712.262Z" transform="translate(-566.984 -271.548)" fill="#bdb9b4"/><path d="M579.525,282.225l-10.606-10.174a1.413,1.413,0,0,0-.834-.5,1.09,1.09,0,0,0-1.027.66c-.167.4-.047.681.319,1.206l8.44,10.242h0l-6.282,7.716a1.336,1.336,0,0,0-.323,1.3,1.114,1.114,0,0,0,1.04.69A.992.992,0,0,0,571,293l8.519-7.92A1.924,1.924,0,0,0,579.525,282.225Z" transform="translate(-566.984 -271.548)" fill="#b31b1b"/><path d="M584.32,293.912l-8.525-10.275,0,0L573.53,280.9l-1.389,1.254a2.063,2.063,0,0,0,0,2.965l10.812,10.419a.925.925,0,0,0,.742.282,1.039,1.039,0,0,0,.953-.667A1.261,1.261,0,0,0,584.32,293.912Z" transform="translate(-566.984 -271.548)" fill="#bdb9b4"/>
    </symbol> -->

    <!-- arxiv big -->
    <svg id="archive" data-name="primary logo" xmlns="http://www.w3.org/2000/svg" viewBox="0 0 246.978 111.119"><path d="M427.571,255.154c1.859,0,3.1,1.24,3.985,3.453,1.062-2.213,2.568-3.453,4.694-3.453h14.878a4.062,4.062,0,0,1,4.074,4.074v7.828c0,2.656-1.327,4.074-4.074,4.074-2.656,0-4.074-1.418-4.074-4.074V263.3H436.515a2.411,2.411,0,0,0-2.656,2.745v27.188h10.007c2.658,0,4.074,1.329,4.074,4.074s-1.416,4.074-4.074,4.074h-26.39c-2.659,0-3.986-1.328-3.986-4.074s1.327-4.074,3.986-4.074h8.236V263.3h-7.263c-2.656,0-3.985-1.329-3.985-4.074,0-2.658,1.329-4.074,3.985-4.074Z" transform="translate(-358.165 -222.27)" fill="#7c7469"/><path d="M539.233,255.154c2.656,0,4.074,1.416,4.074,4.074v34.007h10.1c2.746,0,4.074,1.329,4.074,4.074s-1.328,4.074-4.074,4.074H524.8c-2.656,0-4.074-1.328-4.074-4.074s1.418-4.074,4.074-4.074h10.362V263.3h-8.533c-2.744,0-4.073-1.329-4.073-4.074,0-2.658,1.329-4.074,4.073-4.074Zm4.22-17.615a5.859,5.859,0,1,1-5.819-5.819A5.9,5.9,0,0,1,543.453,237.539Z" transform="translate(-358.165 -222.27)" fill="#7c7469"/><path d="M605.143,259.228a4.589,4.589,0,0,1-.267,1.594L590,298.9a3.722,3.722,0,0,1-3.721,2.48h-5.933a3.689,3.689,0,0,1-3.808-2.48l-15.055-38.081a3.23,3.23,0,0,1-.355-1.594,4.084,4.084,0,0,1,4.164-4.074,3.8,3.8,0,0,1,3.718,2.656l14.348,36.134,13.9-36.134a3.8,3.8,0,0,1,3.72-2.656A4.084,4.084,0,0,1,605.143,259.228Z" transform="translate(-358.165 -222.27)" fill="#7c7469"/><path d="M486.149,277.877l-32.741,38.852c-1.286,1.372-2.084,3.777-1.365,5.5a4.705,4.705,0,0,0,4.4,2.914,4.191,4.191,0,0,0,3.16-1.563l40.191-42.714a4.417,4.417,0,0,0,.042-6.042Z" transform="translate(-358.165 -222.27)" fill="#aa142d"/><path d="M486.149,277.877l31.187-38.268c1.492-1.989,2.2-3.03,1.492-4.723a5.142,5.142,0,0,0-4.481-3.161h0a4.024,4.024,0,0,0-3.008,1.108L472.711,274.6a4.769,4.769,0,0,0,.015,6.53L520.512,332.2a3.913,3.913,0,0,0,3.137,1.192,4.394,4.394,0,0,0,4.027-2.818c.719-1.727-.076-3.438-1.4-5.23l-40.124-47.464" transform="translate(-358.165 -222.27)" fill="#7c7469"/><path d="M499.833,274.828,453.169,224.4s-1.713-2.08-3.524-2.124a4.607,4.607,0,0,0-4.338,2.788c-.705,1.692-.2,2.88,1.349,5.1l40.093,48.422" transform="translate(-358.165 -222.27)" fill="#aa142d"/><path d="M390.61,255.154c5.018,0,8.206,3.312,8.206,8.4v37.831H363.308a4.813,4.813,0,0,1-5.143-4.929V283.427a8.256,8.256,0,0,1,7-8.148l25.507-3.572v-8.4H362.306a4.014,4.014,0,0,1-4.141-4.074c0-2.87,2.143-4.074,4.355-4.074Zm.059,38.081V279.942l-24.354,3.4v9.9Z" transform="translate(-358.165 -222.27)" fill="#7c7469"/></svg>

    <!-- zenodo big -->
<svg version="1.1" id="zenodo" xmlns="http://www.w3.org/2000/svg" xmlns:xlink="http://www.w3.org/1999/xlink" x="0px" y="0px"
         viewBox="0 0 220 80" enable-background="new 0 0 220 80"
         xml:space="preserve">
<linearGradient id="zenodo-gradient" gradientUnits="userSpaceOnUse" x1="0%" y1="0%" x2="100%" y2="0%">
        <stop stop-color="#0047A8" offset="0"/><stop stop-color="#2BBCFF" offset="1"/>
</linearGradient>
<rect x="0" y="0" rx="10px" ry="10px" width="220px" height="80px" fill="url(#zenodo-gradient)" />
<g transform="translate(36.5, 10)">
                        <path fill="#FFFFFF" d="M145.301,18.875c-0.705-1.602-1.656-2.997-2.846-4.19c-1.189-1.187-2.584-2.125-4.188-2.805
                                c-1.604-0.678-3.307-1.02-5.102-1.02c-1.848,0-3.564,0.342-5.139,1.02c-0.787,0.339-1.529,0.74-2.225,1.205
                                c-0.701,0.469-1.357,1.003-1.967,1.6c-0.377,0.37-0.727,0.761-1.051,1.17c-0.363,0.457-0.764,1.068-0.992,1.439
                                c-0.281,0.456-0.957,1.861-1.254,2.828c0.041-1.644,0.281-4.096,1.254-5.472V2.768c0-0.776-0.279-1.431-0.84-1.965
                                C120.396,0.268,119.75,0,119.021,0c-0.777,0-1.43,0.268-1.969,0.803c-0.531,0.534-0.801,1.189-0.801,1.965v10.569
                                c-1.117-0.778-2.322-1.386-3.605-1.824c-1.285-0.436-2.637-0.654-4.045-0.654c-1.799,0-3.496,0.342-5.1,1.02
                                c-1.605,0.679-3,1.618-4.195,2.805c-1.186,1.194-2.139,2.588-2.836,4.19c-0.053,0.12-0.1,0.242-0.15,0.364
                                c-0.047-0.122-0.094-0.244-0.146-0.364c-0.705-1.602-1.656-2.997-2.846-4.19c-1.189-1.187-2.586-2.125-4.188-2.805
                                c-1.604-0.678-3.307-1.02-5.102-1.02c-1.848,0-3.564,0.342-5.139,1.02c-1.584,0.679-2.979,1.618-4.191,2.805
                                c-1.213,1.194-2.164,2.588-2.842,4.19c-0.049,0.115-0.092,0.23-0.137,0.344c-0.047-0.114-0.092-0.229-0.141-0.344
                                c-0.701-1.602-1.65-2.997-2.84-4.19c-1.191-1.187-2.588-2.125-4.193-2.805c-1.604-0.678-3.301-1.02-5.104-1.02
                                c-1.842,0-3.557,0.342-5.137,1.02c-1.578,0.679-2.977,1.618-4.186,2.805c-1.221,1.194-2.166,2.588-2.848,4.19
                                c-0.043,0.106-0.082,0.214-0.125,0.32c-0.043-0.106-0.084-0.214-0.131-0.32c-0.707-1.602-1.656-2.997-2.848-4.19
                                c-1.188-1.187-2.582-2.125-4.184-2.805c-1.605-0.678-3.309-1.02-5.104-1.02c-1.85,0-3.564,0.342-5.137,1.02
                                c-1.467,0.628-2.764,1.488-3.91,2.552V13.99c0-1.557-1.262-2.822-2.82-2.822H3.246c-1.557,0-2.82,1.265-2.82,2.822
                                c0,1.559,1.264,2.82,2.82,2.82h15.541L0.557,41.356C0.195,41.843,0,42.433,0,43.038v1.841c0,1.558,1.264,2.822,2.822,2.822
                                h21.047c1.488,0,2.705-1.153,2.812-2.614c0.932,0.743,1.967,1.364,3.109,1.848c1.605,0.684,3.299,1.021,5.102,1.021
                                c2.723,0,5.15-0.726,7.287-2.187c1.727-1.176,3.092-2.639,4.084-4.389v3.805c0,0.778,0.264,1.436,0.805,1.968
                                c0.531,0.537,1.189,0.803,1.967,0.803c0.73,0,1.369-0.266,1.93-0.803c0.561-0.532,0.838-1.189,0.838-1.968v-9.879h-0.01
                                c0-0.002,0.01-0.013,0.01-0.013s-6.137,0-6.912,0c-0.58,0-1.109,0.154-1.566,0.472c-0.463,0.316-0.793,0.744-0.982,1.275
                                l-0.453,0.93c-0.631,1.365-1.566,2.443-2.809,3.244c-1.238,0.803-2.633,1.201-4.188,1.201c-1.023,0-2.004-0.191-2.955-0.579
                                c-0.941-0.39-1.758-0.935-2.439-1.64c-0.682-0.703-1.227-1.52-1.641-2.443c-0.41-0.924-0.617-1.893-0.617-2.916v-2.476h17.715
                                h1.309h5.539v-8.385c0-1.015,0.191-1.99,0.582-2.912c0.389-0.922,0.936-1.74,1.645-2.444c0.699-0.703,1.514-1.249,2.441-1.641
                                c0.918-0.388,1.92-0.581,2.982-0.581c1.023,0,2.01,0.193,2.955,0.581c0.945,0.393,1.762,0.938,2.439,1.641
                                c0.682,0.704,1.225,1.521,1.641,2.444c0.412,0.922,0.621,1.896,0.621,2.912v21.208c0,0.778,0.266,1.436,0.799,1.968
                                c0.535,0.537,1.191,0.803,1.971,0.803c0.729,0,1.371-0.266,1.934-0.803c0.553-0.532,0.834-1.189,0.834-1.968v-3.803
                                c0.588,1.01,1.283,1.932,2.1,2.749c1.189,1.189,2.586,2.124,4.191,2.804c1.602,0.684,3.303,1.021,5.102,1.021
                                c1.795,0,3.498-0.337,5.102-1.021c1.602-0.68,3.01-1.614,4.227-2.804c1.211-1.19,2.162-2.589,2.842-4.189
                                c0.037-0.095,0.074-0.19,0.109-0.286c0.039,0.096,0.074,0.191,0.113,0.286c0.678,1.601,1.625,2.999,2.842,4.189
                                c1.213,1.189,2.607,2.124,4.189,2.804c1.574,0.684,3.293,1.021,5.139,1.021c1.795,0,3.5-0.337,5.105-1.021
                                c1.6-0.68,2.994-1.614,4.184-2.804c1.191-1.19,2.141-2.589,2.848-4.189c0.051-0.12,0.098-0.239,0.146-0.36
                                c0.049,0.121,0.094,0.24,0.146,0.36c0.703,1.601,1.652,2.999,2.842,4.189c1.189,1.189,2.586,2.124,4.191,2.804
                                c1.604,0.684,3.303,1.021,5.102,1.021c1.795,0,3.498-0.337,5.102-1.021c1.604-0.68,3.01-1.614,4.227-2.804
                                c1.211-1.19,2.16-2.589,2.842-4.189c0.678-1.606,1.02-3.306,1.02-5.104v-10.86C146.355,22.182,146.002,20.479,145.301,18.875z
                                 M7.064,42.06l14.758-19.874c-0.078,0.587-0.121,1.184-0.121,1.791v10.86c0,1.799,0.35,3.498,1.059,5.104
                                c0.328,0.752,0.719,1.458,1.156,2.119c-0.016,0-0.031-0.001-0.047-0.001H7.064z M42.541,26.817H27.24v-2.841
                                c0-1.015,0.189-1.99,0.58-2.912c0.391-0.922,0.936-1.74,1.645-2.444c0.697-0.703,1.516-1.249,2.438-1.641
                                c0.922-0.388,1.92-0.581,2.99-0.581c1.02,0,2.002,0.193,2.949,0.581c0.949,0.393,1.764,0.938,2.441,1.641
                                c0.682,0.704,1.225,1.521,1.641,2.444c0.414,0.922,0.617,1.896,0.617,2.912V26.817z M91.688,34.837
                                c0,1.023-0.189,1.992-0.582,2.916c-0.389,0.924-0.936,1.74-1.637,2.443c-0.705,0.705-1.523,1.25-2.445,1.64
                                c-0.92,0.388-1.92,0.579-2.984,0.579c-1.023,0-2.004-0.191-2.955-0.579c-0.945-0.39-1.758-0.935-2.439-1.64
                                c-0.682-0.703-1.229-1.52-1.641-2.443s-0.617-1.893-0.617-2.916v-10.86c0-1.015,0.191-1.99,0.582-2.912
                                c0.387-0.922,0.934-1.74,1.639-2.444c0.701-0.703,1.52-1.249,2.441-1.641c0.922-0.388,1.92-0.581,2.99-0.581
                                c1.018,0,2.004,0.193,2.947,0.581c0.951,0.393,1.764,0.938,2.443,1.641c0.68,0.704,1.223,1.521,1.641,2.444
                                c0.412,0.922,0.617,1.896,0.617,2.912V34.837z M116.252,34.837c0,1.023-0.203,1.992-0.617,2.916
                                c-0.412,0.924-0.961,1.74-1.641,2.443c-0.68,0.705-1.492,1.25-2.443,1.64c-0.943,0.388-1.93,0.579-2.949,0.579
                                c-1.07,0-2.066-0.191-2.988-0.579c-0.924-0.39-1.74-0.935-2.439-1.64c-0.707-0.703-1.252-1.52-1.643-2.443
                                s-0.584-1.893-0.584-2.916v-10.86c0-1.015,0.211-1.99,0.619-2.912c0.416-0.922,0.961-1.74,1.641-2.444
                                c0.682-0.703,1.496-1.249,2.439-1.641c0.951-0.388,1.934-0.581,2.955-0.581c1.068,0,2.062,0.193,2.986,0.581
                                c0.926,0.393,1.738,0.938,2.443,1.641c0.703,0.704,1.252,1.521,1.641,2.444c0.389,0.922,0.58,1.896,0.58,2.912V34.837z
                                 M140.816,34.837c0,1.023-0.193,1.992-0.58,2.916c-0.393,0.924-0.939,1.74-1.641,2.443c-0.705,0.705-1.523,1.25-2.443,1.64
                                c-0.922,0.388-1.92,0.579-2.986,0.579c-1.021,0-2.004-0.191-2.955-0.579c-0.943-0.39-1.758-0.935-2.438-1.64
                                c-0.682-0.703-1.23-1.52-1.643-2.443s-0.619-1.893-0.619-2.916v-10.86c0-1.015,0.193-1.99,0.584-2.912
                                c0.387-0.922,0.934-1.74,1.639-2.444c0.703-0.703,1.518-1.249,2.441-1.641c0.924-0.388,1.92-0.581,2.99-0.581
                                c1.02,0,2.004,0.193,2.949,0.581c0.949,0.393,1.764,0.938,2.441,1.641c0.682,0.704,1.225,1.521,1.643,2.444
                                c0.412,0.922,0.617,1.896,0.617,2.912V34.837z"/>
</g>
</svg>

  </defs>
</svg>